<?xml version="1.0" encoding="UTF-8" standalone="no"?>
<!-- Created with Inkscape (http://www.inkscape.org/) -->

<svg
   xmlns:dc="http://purl.org/dc/elements/1.1/"
   xmlns:cc="http://creativecommons.org/ns#"
   xmlns:rdf="http://www.w3.org/1999/02/22-rdf-syntax-ns#"
   xmlns:svg="http://www.w3.org/2000/svg"
   xmlns="http://www.w3.org/2000/svg"
   xmlns:sodipodi="http://sodipodi.sourceforge.net/DTD/sodipodi-0.dtd"
   xmlns:inkscape="http://www.inkscape.org/namespaces/inkscape"
   width="148.29968mm"
   height="25.135416mm"
   viewBox="0 0 148.29966 25.135416"
   version="1.1"
   id="svg2319"
   inkscape:version="0.92.2 (5c3e80d, 2017-08-06)"
   sodipodi:docname="community.svg">
  <defs
     id="defs2313" />
  <sodipodi:namedview
     id="base"
     pagecolor="#ffffff"
     bordercolor="#666666"
     borderopacity="1.0"
     inkscape:pageopacity="0.0"
     inkscape:pageshadow="2"
     inkscape:zoom="1.4"
     inkscape:cx="507.4107"
     inkscape:cy="-77.04883"
     inkscape:document-units="mm"
     inkscape:current-layer="layer1"
     showgrid="false"
     fit-margin-top="0"
     fit-margin-left="0"
     fit-margin-right="0"
     fit-margin-bottom="0"
     inkscape:window-width="2560"
     inkscape:window-height="1391"
     inkscape:window-x="0"
     inkscape:window-y="0"
     inkscape:window-maximized="1" />
  <metadata
     id="metadata2316">
    <rdf:RDF>
      <cc:Work
         rdf:about="">
        <dc:format>image/svg+xml</dc:format>
        <dc:type
           rdf:resource="http://purl.org/dc/dcmitype/StillImage" />
        <dc:title></dc:title>
      </cc:Work>
    </rdf:RDF>
  </metadata>
  <g
     inkscape:label="Layer 1"
     inkscape:groupmode="layer"
     id="layer1"
     transform="translate(-21.883148,-137.10535)">
    <rect
       style="opacity:1;vector-effect:none;fill:#916f6f;fill-opacity:1;stroke:#ffffff;stroke-width:0.35714576;stroke-linecap:round;stroke-linejoin:round;stroke-miterlimit:4;stroke-dasharray:none;stroke-dashoffset:8.39055061;stroke-opacity:1;paint-order:normal"
       id="rect3998"
       width="340.76865"
       height="144.59282"
       x="-9.8441229"
       y="185.73227" />
    <g
       id="g5088"
       transform="matrix(0.34797739,0,0,0.34787533,133.74831,84.550261)"
       style="stroke:#ffffff;stroke-width:0.95633459;stroke-miterlimit:4;stroke-dasharray:none"
       inkscape:export-filename="/home/knome/community.png"
       inkscape:export-xdpi="76.800621"
       inkscape:export-ydpi="76.800621">
      <path
         style="opacity:1;vector-effect:none;fill:none;fill-opacity:1;stroke:#ffffff;stroke-width:0.95633459;stroke-linecap:round;stroke-linejoin:round;stroke-miterlimit:4;stroke-dasharray:none;stroke-dashoffset:0;stroke-opacity:1;paint-order:fill markers stroke"
         d="m 6.4666748,177.06421 c 1.0780695,4.53565 1.1606388,7.84299 0.9366811,14.84415 -0.4375654,13.67877 -7.96743429,24.77112 -18.7749049,24.77112 -10.80747,0 -19.479812,-10.63597 -19.105632,-25.30028 0.178677,-7.00247 -0.121807,-9.95289 0.767273,-15.65605"
         id="path6941"
         inkscape:connector-curvature="0"
         sodipodi:nodetypes="csssc" />
      <path
         sodipodi:nodetypes="csc"
         inkscape:connector-curvature="0"
         id="path6945"
         d="m -30.906437,185.07163 c -2.301961,-2.03203 -3.088389,0.0819 -2.773755,3.12531 0.50022,4.83847 1.732968,3.9183 1.732968,3.9183"
         style="opacity:1;vector-effect:none;fill:none;fill-opacity:0;fill-rule:evenodd;stroke:#ffffff;stroke-width:0.95633459;stroke-linecap:round;stroke-linejoin:round;stroke-miterlimit:4;stroke-dasharray:none;stroke-dashoffset:0;stroke-opacity:1;paint-order:fill markers stroke" />
      <path
         sodipodi:nodetypes="ccccsssscc"
         inkscape:connector-curvature="0"
         id="path6967"
         d="m 3.1439385,208.21258 c 1.3229166,9.92187 9.6222075,14.63792 9.6222075,14.63792 -3.2873041,-6.10239 -4.6183436,-10.30536 -3.5057294,-14.48593 3.3959504,5.34766 4.0814494,7.38605 13.4937504,11.57552 0,0 -8.598959,-10.78177 -9.128126,-16.33802 -0.529166,-5.55625 3.571875,-17.59479 3.571875,-23.15104 0,-5.55625 2.893227,-23.56121 -16.64766486,-26.14285 -10.74566714,-1.41966 -30.05129214,1.45479 -30.05129214,19.26368 0,15.09324 22.2254794,-4.61377 25.2489044,-8.39305 0.8913597,5.46467 2.7843736,11.09428 10.8265957,11.87139"
         style="opacity:1;vector-effect:none;fill:none;fill-opacity:0;fill-rule:evenodd;stroke:#ffffff;stroke-width:0.95633459;stroke-linecap:round;stroke-linejoin:round;stroke-miterlimit:4;stroke-dasharray:none;stroke-dashoffset:0;stroke-opacity:1;paint-order:fill markers stroke" />
      <g
         style="stroke:#ffffff;stroke-width:0.84000152;stroke-miterlimit:4;stroke-dasharray:none"
         transform="matrix(1.1198478,0,0,1.1574455,0.41694163,-29.223478)"
         id="g5029">
        <path
           style="opacity:1;vector-effect:none;fill:none;fill-opacity:0;fill-rule:evenodd;stroke:#ffffff;stroke-width:0.84000152;stroke-linecap:round;stroke-linejoin:round;stroke-miterlimit:4;stroke-dasharray:none;stroke-dashoffset:0;stroke-opacity:1;paint-order:fill markers stroke"
           d="m -7.5793723,185.0104 c 0,0 4.4444965,-1.46576 8.20208328,0.66146"
           id="path6975"
           inkscape:connector-curvature="0"
           sodipodi:nodetypes="cc" />
      </g>
      <g
         style="stroke:#ffffff;stroke-width:0.84023875;stroke-miterlimit:4;stroke-dasharray:none"
         transform="matrix(1.1195202,0,0,1.1571306,1.8284183,-29.389356)"
         id="g5025">
        <path
           sodipodi:nodetypes="cc"
           inkscape:connector-curvature="0"
           id="path4988"
           d="m -22.541037,185.70646 c 0,0 4.252756,-1.95348 8.224613,-0.2597"
           style="opacity:1;vector-effect:none;fill:none;fill-opacity:0;fill-rule:evenodd;stroke:#ffffff;stroke-width:0.84023875;stroke-linecap:round;stroke-linejoin:round;stroke-miterlimit:4;stroke-dasharray:none;stroke-dashoffset:0;stroke-opacity:1;paint-order:fill markers stroke" />
      </g>
      <path
         sodipodi:nodetypes="cc"
         inkscape:connector-curvature="0"
         id="path5021"
         d="m -19.998529,202.44847 c 3.645562,5.33299 14.8434455,3.95117 17.2830861,0.33513"
         style="opacity:1;vector-effect:none;fill:none;fill-opacity:0;fill-rule:evenodd;stroke:#ffffff;stroke-width:0.95633459;stroke-linecap:round;stroke-linejoin:round;stroke-miterlimit:4;stroke-dasharray:none;stroke-dashoffset:0;stroke-opacity:1;paint-order:fill markers stroke" />
    </g>
    <g
       id="g5052"
       transform="matrix(0.33357422,0,0,0.33356958,55.28151,87.579543)"
       style="stroke:#ffffff;stroke-width:0.9978832;stroke-miterlimit:4;stroke-dasharray:none"
       inkscape:export-filename="/home/knome/community.png"
       inkscape:export-xdpi="76.800621"
       inkscape:export-ydpi="76.800621">
      <path
         sodipodi:nodetypes="csssc"
         inkscape:connector-curvature="0"
         id="path6847"
         d="m -51.482764,174.87549 c 1.217732,5.12039 0.01583,7.78577 1.293147,15.58973 2.619245,16.0027 -9.896185,28.6367 -22.103749,28.6367 -12.207565,0 -25.28426,-10.29538 -22.103748,-28.6367 1.351105,-7.79153 0.385417,-11.16135 1.389677,-17.59977"
         style="opacity:1;vector-effect:none;fill:none;fill-opacity:1;stroke:#ffffff;stroke-width:0.9978832;stroke-linecap:round;stroke-linejoin:round;stroke-miterlimit:4;stroke-dasharray:none;stroke-dashoffset:0;stroke-opacity:1;paint-order:fill markers stroke" />
      <path
         sodipodi:nodetypes="csc"
         inkscape:connector-curvature="0"
         id="path6852"
         d="m -50.051753,183.693 c 3.695223,-6.4321 5.272674,0.33088 5.272674,3.78491 0,5.49136 -4.331126,3.40641 -4.331126,3.40641"
         style="opacity:1;vector-effect:none;fill:none;fill-opacity:0;fill-rule:evenodd;stroke:#ffffff;stroke-width:0.9978832;stroke-linecap:round;stroke-linejoin:round;stroke-miterlimit:4;stroke-dasharray:none;stroke-dashoffset:0;stroke-opacity:1;paint-order:fill markers stroke" />
      <path
         style="opacity:1;vector-effect:none;fill:none;fill-opacity:0;fill-rule:evenodd;stroke:#ffffff;stroke-width:0.9978832;stroke-linecap:round;stroke-linejoin:round;stroke-miterlimit:4;stroke-dasharray:none;stroke-dashoffset:0;stroke-opacity:1;paint-order:fill markers stroke"
         d="m -94.351121,184.63923 c -3.695223,-6.4321 -5.272668,0.33086 -5.272668,3.78489 0,5.49137 4.33112,3.40642 4.33112,3.40642"
         id="path6854"
         inkscape:connector-curvature="0"
         sodipodi:nodetypes="csc" />
      <path
         sodipodi:nodetypes="ccc"
         inkscape:connector-curvature="0"
         id="path6856"
         d="m -84.305813,199.77665 c 9.415487,0.56775 22.858267,0.0871 22.858267,0.0871 1.512998,2.76255 -14.366098,20.61001 -22.858267,-0.0871 z"
         style="opacity:1;vector-effect:none;fill:none;fill-opacity:0;fill-rule:evenodd;stroke:#ffffff;stroke-width:0.9978832;stroke-linecap:round;stroke-linejoin:round;stroke-miterlimit:4;stroke-dasharray:none;stroke-dashoffset:0;stroke-opacity:1;paint-order:fill markers stroke" />
      <path
         sodipodi:nodetypes="cc"
         inkscape:connector-curvature="0"
         id="path6864"
         d="m -85.830608,185.7747 c 4.749768,1.59253 9.419486,-0.43183 9.509643,-0.56774"
         style="opacity:1;vector-effect:none;fill:none;fill-opacity:0;fill-rule:evenodd;stroke:#ffffff;stroke-width:0.9978832;stroke-linecap:round;stroke-linejoin:round;stroke-miterlimit:4;stroke-dasharray:none;stroke-dashoffset:0;stroke-opacity:1;paint-order:fill markers stroke" />
      <path
         sodipodi:nodetypes="cc"
         inkscape:connector-curvature="0"
         id="path6866"
         d="m -66.908249,185.07316 c 2.715809,0.87663 6.90115,0.5158 9.229951,-0.24469"
         style="opacity:1;vector-effect:none;fill:none;fill-opacity:0;fill-rule:evenodd;stroke:#ffffff;stroke-width:0.9978832;stroke-linecap:round;stroke-linejoin:round;stroke-miterlimit:4;stroke-dasharray:none;stroke-dashoffset:0;stroke-opacity:1;paint-order:fill markers stroke" />
      <path
         sodipodi:nodetypes="ccccccccccsccsc"
         inkscape:connector-curvature="0"
         id="path5043"
         d="m -93.026515,172.54826 c 1.355428,2.75168 3.397111,4.00014 5.001298,4.76176 -0.378493,-3.50637 0.405202,-5.78424 3.274051,-7.15615 0.10994,3.42931 1.449973,6.66968 5.238481,7.15614 -0.350767,-3.48062 1.074588,-6.5175 3.554687,-7.7174 0.08493,3.33619 1.599462,5.56565 3.928861,7.15613 -0.325321,-4.51348 0.9021,-5.73286 3.975635,-7.2029 -0.8284,3.0007 2.12124,6.40078 4.864307,6.92228 0.122078,-2.73393 2.391065,-5.19011 4.490125,-6.68843 -0.302696,5.87882 5.660404,5.00912 7.29646,6.26748 0.07063,-7.44086 -2.936748,-11.86183 -7.857725,-13.93811 -4.50276,-1.89982 -12.020448,-3.46114 -12.020448,-3.46114 2.130962,-1.15098 4.606782,-3.65092 2.245065,-6.08037 0,0 -4.806212,4.34467 -7.951269,5.23848 -8.886736,2.52555 -15.291175,5.76197 -16.039528,14.74223 z"
         style="fill:none;fill-rule:evenodd;stroke:#ffffff;stroke-width:0.9978832;stroke-linecap:round;stroke-linejoin:round;stroke-miterlimit:4;stroke-dasharray:none;stroke-opacity:1" />
    </g>
    <g
       id="g5099"
       transform="matrix(0.42407344,0,0,0.42420116,132.18881,70.012028)"
       style="stroke:#ffffff;stroke-width:0.8804394;stroke-miterlimit:4;stroke-dasharray:none">
      <path
         style="opacity:1;vector-effect:none;fill:none;fill-opacity:1;stroke:#ffffff;stroke-width:0.8804394;stroke-linecap:round;stroke-linejoin:round;stroke-miterlimit:4;stroke-dasharray:none;stroke-dashoffset:0;stroke-opacity:1;paint-order:fill markers stroke"
         d="m 70.378559,175.60447 c 1.078069,4.53565 1.910784,8.05545 1.910786,15.06019 2e-6,7.00474 -3.682746,22.80487 -15.280084,22.02622 -2.5987,-0.17447 -2.511175,1.88689 -4.968495,1.87342 -2.160386,-0.0114 -1.268145,-1.46942 -4.374888,-1.45854 -10.986665,0.0385 -14.513842,-15.43636 -14.513841,-22.4411 2e-6,-7.00474 0.341214,-9.88674 1.230294,-15.5899"
         id="path6879"
         inkscape:connector-curvature="0"
         sodipodi:nodetypes="csssssc" />
      <path
         style="opacity:1;vector-effect:none;fill:none;fill-opacity:0;fill-rule:evenodd;stroke:#ffffff;stroke-width:0.8804394;stroke-linecap:round;stroke-linejoin:round;stroke-miterlimit:4;stroke-dasharray:none;stroke-dashoffset:0;stroke-opacity:1;paint-order:fill markers stroke"
         d="m 72.185953,184.75597 c 3.271415,-5.69757 5.954342,0.79561 5.954342,3.8552 0,4.86426 -5.436403,3.75699 -5.436403,3.75699"
         id="path6881"
         inkscape:connector-curvature="0"
         sodipodi:nodetypes="csc" />
      <path
         style="opacity:1;vector-effect:none;fill:none;fill-opacity:0;fill-rule:evenodd;stroke:#ffffff;stroke-width:0.8804394;stroke-linecap:round;stroke-linejoin:round;stroke-miterlimit:4;stroke-dasharray:none;stroke-dashoffset:0;stroke-opacity:1;paint-order:fill markers stroke"
         d="m 43.863128,202.54014 c 4.868587,4.32353 13.826101,2.14943 17.338088,-0.26584"
         id="path6885"
         inkscape:connector-curvature="0"
         sodipodi:nodetypes="cc" />
      <g
         transform="translate(0.09354433,1.122532)"
         id="g5034"
         style="stroke:#ffffff;stroke-width:0.8804394;stroke-miterlimit:4;stroke-dasharray:none">
        <path
           style="opacity:1;vector-effect:none;fill:none;fill-opacity:0;fill-rule:evenodd;stroke:#ffffff;stroke-width:0.8804394;stroke-linecap:round;stroke-linejoin:round;stroke-miterlimit:4;stroke-dasharray:none;stroke-dashoffset:0;stroke-opacity:1;paint-order:fill markers stroke"
           d="m 33.238791,182.34772 c 0,0 3.151362,1.26459 5.204008,1.61819 2.052646,0.35361 10.67846,0.49598 14.023694,0.38558 4.451981,-0.14692 8.534582,0.20997 12.953335,-0.076 3.411507,-0.22081 4.235874,-0.80482 5.961679,-1.94949"
           id="path6902"
           inkscape:connector-curvature="0"
           sodipodi:nodetypes="csssc" />
        <path
           style="opacity:1;vector-effect:none;fill:#ffffff;fill-opacity:0.49019608;fill-rule:evenodd;stroke:#ffffff;stroke-width:0.8804394;stroke-linecap:round;stroke-linejoin:round;stroke-miterlimit:4;stroke-dasharray:none;stroke-dashoffset:0;stroke-opacity:1;paint-order:fill markers stroke"
           d="m 39.242286,184.4743 c -0.855462,9.48123 10.695344,10.37066 10.99951,0.21667"
           id="path6904"
           inkscape:connector-curvature="0"
           sodipodi:nodetypes="cc" />
        <path
           sodipodi:nodetypes="cc"
           inkscape:connector-curvature="0"
           id="path6906"
           d="m 65.775041,184.66508 c 0.606656,9.79465 -11.706187,10.24354 -11.705025,-0.22136"
           style="opacity:1;vector-effect:none;fill:#ffffff;fill-opacity:0.49019608;fill-rule:evenodd;stroke:#ffffff;stroke-width:0.8804394;stroke-linecap:round;stroke-linejoin:round;stroke-miterlimit:4;stroke-dasharray:none;stroke-dashoffset:0;stroke-opacity:1;paint-order:fill markers stroke" />
      </g>
      <path
         sodipodi:nodetypes="csscsc"
         inkscape:connector-curvature="0"
         id="path6918"
         d="m 34.382331,175.07476 c 0,0 12.892444,4.92059 36.013096,0.39999 3.000823,-0.58673 18.980127,-0.84222 18.755143,-3.68794 -0.226261,-2.86187 -20.088841,-2.34687 -20.088841,-2.34687 0,0 -3.639064,-10.91914 -17.476193,-10.83531 -13.094907,0.0793 -17.203205,16.47013 -17.203205,16.47013 z"
         style="opacity:1;vector-effect:none;fill:none;fill-opacity:0;fill-rule:evenodd;stroke:#ffffff;stroke-width:0.8804394;stroke-linecap:round;stroke-linejoin:round;stroke-miterlimit:4;stroke-dasharray:none;stroke-dashoffset:0;stroke-opacity:1;paint-order:fill markers stroke" />
      <path
         sodipodi:nodetypes="csc"
         inkscape:connector-curvature="0"
         id="path6883"
         d="m 33.039901,185.45891 c -3.271416,-5.69757 -5.572982,0.33816 -5.572982,3.39774 0,4.86426 5.443458,3.51994 5.443458,3.51994"
         style="opacity:1;vector-effect:none;fill:none;fill-opacity:0;fill-rule:evenodd;stroke:#ffffff;stroke-width:0.8804394;stroke-linecap:round;stroke-linejoin:round;stroke-miterlimit:4;stroke-dasharray:none;stroke-dashoffset:0;stroke-opacity:1;paint-order:fill markers stroke" />
    </g>
  </g>
</svg>
